name C:\Users\u0101727\Documents\MyRepositories\paper-ad\predictivesimulations_2d/Results/PredSim_2D/IK_c12.mot
datacolumns 11
datarows 21
range 1.27594957 1.46782169
endheader
time	pelvis_tilt	pelvis_tx	pelvis_ty	hip_flexion_l	hip_flexion_r	knee_angle_l	knee_angle_r	ankle_angle_l	ankle_angle_r	lumbar_extension	
          1.27594957	        -15.10584739	          1.69368807	          0.90063990	         33.19580857	         10.37228163	        -37.56418402	         -7.29111872	         15.70372102	         11.30611856	          9.42428914	
          1.28554318	        -15.10515414	          1.70567585	          0.89978102	         34.16430040	          9.59658921	        -36.09141832	         -7.33895318	         15.98937030	         11.31661709	          9.38443920	
          1.29513678	        -15.10553837	          1.71771916	          0.89886420	         35.07166543	          8.83854069	        -34.50201307	         -7.42250628	         16.19411333	         11.31485356	          9.34784243	
          1.30473039	        -15.10739046	          1.72982447	          0.89788830	         35.91444384	          8.09708824	        -32.80371936	         -7.54072048	         16.32706804	         11.30443863	          9.31480564	
          1.31432399	        -15.11103351	          1.74199990	          0.89685218	         36.68804730	          7.37188284	        -31.00796674	         -7.69387949	         16.39701717	         11.28619333	          9.28571528	
          1.32391760	        -15.11653697	          1.75425745	          0.89575848	         37.38575185	          6.66382324	        -29.14093692	         -7.88565564	         16.41210644	         11.25850072	          9.26116233	
          1.33351121	        -15.12392855	          1.76661536	          0.89461961	         37.99461036	          5.97494126	        -27.23688523	         -8.12229040	         16.37962725	         11.21532495	          9.24244979	
          1.34310481	        -15.13323076	          1.77909514	          0.89345728	         38.49883248	          5.30839053	        -25.32800851	         -8.41090125	         16.30597704	         11.14425486	          9.23129966	
          1.35269842	        -15.14412530	          1.79171556	          0.89229401	         38.88899850	          4.66857442	        -23.44214267	         -8.75994844	         16.19654544	         11.02900756	          9.22889864	
          1.36229202	        -15.15581425	          1.80449122	          0.89114776	         39.16497939	          4.06076248	        -21.60117179	         -9.17929789	         16.05545741	         10.85305164	          9.23565129	
          1.37188563	        -15.16708403	          1.81743496	          0.89003286	         39.33365292	          3.49024693	        -19.82672276	         -9.67928495	         15.88531237	         10.60211480	          9.25148633	
          1.38147923	        -15.17671565	          1.83056067	          0.88896145	         39.40223629	          2.96190497	        -18.13357631	        -10.26957511	         15.68730490	         10.26335095	          9.27649623	
          1.39107284	        -15.18356631	          1.84388280	          0.88794272	         39.37755472	          2.48017135	        -16.53350688	        -10.95873624	         15.46132881	          9.82460702	          9.31091936	
          1.40066645	        -15.18638160	          1.85741553	          0.88698193	         39.26720753	          2.04966090	        -15.04355746	        -11.75576388	         15.20610279	          9.27503504	          9.35489417	
          1.41026005	        -15.18389816	          1.87117326	          0.88608016	         39.07623560	          1.67589265	        -13.67826650	        -12.67094702	         14.91961258	          8.60366257	          9.40871190	
          1.41985366	        -15.17471166	          1.88516959	          0.88523309	         38.80941645	          1.36477678	        -12.45750600	        -13.71521556	         14.59897669	          7.80005264	          9.47262384	
          1.42944726	        -15.15726500	          1.89941625	          0.88442959	         38.47211181	          1.12197113	        -11.41006844	        -14.89877326	         14.24039853	          6.85669404	          9.54677969	
          1.43904087	        -15.13011648	          1.91392436	          0.88365055	         38.06465175	          0.95226283	        -10.56683159	        -16.23090929	         13.83951678	          5.77360929	          9.63176942	
          1.44863448	        -15.09207537	          1.92870216	          0.88286446	         37.57999186	          0.85856980	         -9.96146300	        -17.72459250	         13.39134496	          4.57315193	          9.72865565	
          1.45822808	        -15.04298635	          1.94374340	          0.88202746	         37.00014543	          0.84361621	         -9.64211445	        -19.38576379	         12.89107800	          3.26885757	          9.83858267	
          1.46782169	        -14.98540540	          1.95903104	          0.88116295	         36.25704008	          0.91463705	         -9.72933132	        -21.21130094	         12.33664383	          1.84072251	          9.96552277	
